<svg width="160" height="50" viewBox="0 0 160 50" fill="none" xmlns="http://www.w3.org/2000/svg">
<path d="M147.257 0H12.7428C12.2614 0 11.78 0 11.2853 0C10.8708 0 10.4697 0.0125 10.0552 0.0125C9.15928 0.0375 8.26341 0.0875 7.38091 0.2375C6.48504 0.3875 5.65603 0.6375 4.84038 1.025C4.03811 1.4125 3.30269 1.9 2.67424 2.5C2.03243 3.0875 1.49758 3.775 1.09644 4.525C0.681932 5.2875 0.414508 6.0625 0.254053 6.9C0.0935985 7.725 0.0401137 8.5625 0.0133712 9.4C0.0133712 9.7875 0 10.175 0 10.55C0 11 0 11.4625 0 11.9125V38.075C0 38.5375 0 38.9875 0 39.4375C0 39.825 0.0133712 40.2 0.0267424 40.5875C0.0534849 41.425 0.10697 42.2625 0.267424 43.0875C0.427879 43.925 0.681932 44.7125 1.10981 45.4625C1.51095 46.2125 2.0458 46.8875 2.68761 47.475C3.31606 48.075 4.05148 48.575 4.85375 48.95C5.6694 49.3375 6.49841 49.5875 7.39428 49.7375C8.27678 49.8875 9.18603 49.9375 10.0685 49.9625C10.4697 49.9875 10.8708 50 11.2853 50C11.78 50 12.2614 50 12.7428 50H147.257C147.739 50 148.22 50 148.701 50C149.102 50 149.53 50 149.931 49.9875C150.827 49.9625 151.723 49.9125 152.606 49.7625C153.502 49.6125 154.331 49.3625 155.16 48.975C155.962 48.6 156.684 48.1 157.326 47.5C157.968 46.9125 158.489 46.225 158.904 45.4875C159.318 44.725 159.585 43.95 159.733 43.1125C159.893 42.2875 159.947 41.45 159.987 40.6125C159.987 40.225 159.987 39.85 159.987 39.4625C160 39.0125 160 38.5625 160 38.1V11.925C160 11.4625 160 11.0125 159.987 10.5625C159.987 10.175 159.987 9.8 159.987 9.4125C159.96 8.575 159.906 7.7375 159.733 6.9125C159.585 6.075 159.318 5.3 158.904 4.5375C158.489 3.7875 157.954 3.1 157.326 2.5125C156.697 1.925 155.962 1.425 155.16 1.0375C154.331 0.65 153.502 0.4 152.606 0.25C151.723 0.1 150.827 0.05 149.931 0.025C149.53 0.025 149.102 0.0125 148.701 0.0125C148.233 0 147.739 0 147.257 0Z" fill="#B7B7B7"/>
<path d="M11.2865 48.9126C10.8854 48.9126 10.4842 48.9126 10.0831 48.9001C9.33432 48.8751 8.45182 48.8376 7.58269 48.7001C6.76705 48.5626 6.045 48.3376 5.36307 48.0126C4.66776 47.6876 4.03932 47.2501 3.4911 46.7376C2.94288 46.2251 2.48826 45.6501 2.12723 44.9876C1.77958 44.3626 1.5389 43.6751 1.40519 42.9126C1.24473 42.0751 1.20462 41.2126 1.17788 40.5626C1.1645 40.3001 1.16451 39.4251 1.16451 39.4251V10.5501C1.16451 10.5501 1.17788 9.6876 1.17788 9.4376C1.20462 8.7876 1.24473 7.9251 1.40519 7.1001C1.55227 6.3251 1.79295 5.6501 2.1406 5.0251C2.50163 4.3751 2.95625 3.7876 3.50447 3.2751C4.05269 2.7501 4.68114 2.3251 5.36307 2.0001C6.045 1.6751 6.78042 1.4501 7.56932 1.3251C8.47856 1.1626 9.3878 1.1251 10.0831 1.1126L11.2865 1.1001H148.703L149.919 1.1126C150.601 1.1251 151.524 1.1626 152.406 1.3126C153.209 1.4501 153.944 1.6626 154.639 2.0001C155.321 2.3251 155.95 2.7626 156.498 3.2751C157.046 3.7876 157.501 4.3751 157.862 5.0251C158.209 5.6626 158.437 6.3376 158.584 7.0876C158.744 7.8751 158.784 8.6876 158.811 9.4501C158.811 9.8001 158.811 10.1876 158.811 10.5626C158.825 11.0376 158.825 11.4751 158.825 11.9251V38.0876C158.825 38.5376 158.825 38.9876 158.811 39.4376C158.811 39.8501 158.811 40.2126 158.811 40.6001C158.784 41.3376 158.731 42.1501 158.584 42.9126C158.45 43.6751 158.209 44.3626 157.862 45.0001C157.501 45.6501 157.046 46.2376 156.498 46.7376C155.95 47.2626 155.321 47.6876 154.626 48.0126C153.931 48.3376 153.222 48.5626 152.393 48.7001C151.537 48.8501 150.655 48.8876 149.893 48.9001C149.505 48.9126 149.09 48.9126 148.689 48.9126H147.245H11.2865Z" fill="#000001"/>
<path d="M33.1214 25.3752C33.0812 21.9377 36.1299 20.2627 36.277 20.1877C34.5521 17.8377 31.8778 17.5127 30.9419 17.4877C28.6955 17.2627 26.516 18.7377 25.3794 18.7377C24.2161 18.7377 22.4511 17.5002 20.5524 17.5377C18.1055 17.5752 15.819 18.9002 14.5755 20.9502C11.9948 25.1377 13.9203 31.2877 16.394 34.6752C17.6375 36.3377 19.0816 38.1877 20.9803 38.1127C22.8389 38.0377 23.5342 37.0127 25.7672 37.0127C27.9868 37.0127 28.6286 38.1127 30.5675 38.0752C32.5598 38.0502 33.8167 36.4127 35.0067 34.7377C36.4374 32.8377 37.0124 30.9627 37.0391 30.8752C36.9723 30.8627 33.1615 29.5002 33.1214 25.3752Z" fill="white"/>
<path d="M29.4694 15.2629C30.4722 14.1004 31.1541 12.5129 30.9536 10.9004C29.5095 10.9629 27.7044 11.8379 26.6614 12.9754C25.7388 13.9754 24.9231 15.6254 25.1371 17.1754C26.755 17.2879 28.4264 16.4129 29.4694 15.2629Z" fill="white"/>
<path d="M56.56 33.9251H50.2354L48.7111 38.1251H46.0369L52.0272 22.6001H54.8084L60.7987 38.1251H58.0709L56.56 33.9251ZM50.8906 31.9876H55.9048L53.4311 25.1751H53.3643L50.8906 31.9876Z" fill="white"/>
<path d="M73.7545 32.4625C73.7545 35.975 71.7354 38.2375 68.7002 38.2375C66.9753 38.2375 65.6114 37.5125 64.8894 36.2625H64.8359V41.8625H62.3489V26.8H64.7557V28.6875H64.7958C65.4911 27.475 66.9619 26.6875 68.6467 26.6875C71.7354 26.6875 73.7545 28.95 73.7545 32.4625ZM71.2006 32.4625C71.2006 30.175 69.9303 28.6625 68.0049 28.6625C66.1062 28.6625 64.8225 30.2 64.8225 32.4625C64.8225 34.7375 66.1062 36.275 68.0049 36.275C69.9303 36.275 71.2006 34.775 71.2006 32.4625Z" fill="white"/>
<path d="M87.0751 32.4625C87.0751 35.975 85.0561 38.2375 82.0208 38.2375C80.2959 38.2375 78.9321 37.5125 78.21 36.2625H78.1565V41.8625H75.6829V26.8H78.0897V28.6875H78.1298C78.8251 27.475 80.2959 26.6875 81.9807 26.6875C85.0561 26.6875 87.0751 28.95 87.0751 32.4625ZM84.5212 32.4625C84.5212 30.175 83.251 28.6625 81.3255 28.6625C79.4268 28.6625 78.1432 30.2 78.1432 32.4625C78.1432 34.7375 79.4268 36.275 81.3255 36.275C83.2643 36.275 84.5212 34.775 84.5212 32.4625Z" fill="white"/>
<path d="M95.8835 33.7999C96.0707 35.3374 97.6619 36.3499 99.8547 36.3499C101.954 36.3499 103.452 35.3374 103.452 33.9499C103.452 32.7499 102.542 32.0249 100.39 31.5249L98.2368 31.0374C95.1882 30.3499 93.7708 29.0124 93.7708 26.8499C93.7708 24.1749 96.2713 22.3374 99.8146 22.3374C103.318 22.3374 105.725 24.1749 105.805 26.8499H103.291C103.144 25.2999 101.767 24.3624 99.7745 24.3624C97.7822 24.3624 96.405 25.3124 96.405 26.6874C96.405 27.7874 97.2741 28.4249 99.4135 28.9249L101.245 29.3499C104.655 30.0999 106.072 31.3874 106.072 33.6499C106.072 36.5499 103.599 38.3749 99.6675 38.3749C95.9905 38.3749 93.5034 36.5999 93.343 33.7874H95.8835V33.7999Z" fill="white"/>
<path d="M111.449 24.125V26.8H113.749V28.6375H111.449V34.875C111.449 35.85 111.904 36.3 112.92 36.3C113.174 36.3 113.575 36.2625 113.736 36.25V38.075C113.455 38.1375 112.907 38.1875 112.359 38.1875C109.912 38.1875 108.949 37.325 108.949 35.1375V28.65H107.184V26.8125H108.949V24.125H111.449Z" fill="white"/>
<path d="M115.071 32.4626C115.071 28.9001 117.318 26.6626 120.808 26.6626C124.324 26.6626 126.544 28.9001 126.544 32.4626C126.544 36.0376 124.324 38.2626 120.808 38.2626C117.304 38.2626 115.071 36.0376 115.071 32.4626ZM124.03 32.4626C124.03 30.0251 122.827 28.5751 120.821 28.5751C118.815 28.5751 117.612 30.0251 117.612 32.4626C117.612 34.9126 118.802 36.3501 120.821 36.3501C122.84 36.3501 124.03 34.9126 124.03 32.4626Z" fill="white"/>
<path d="M128.619 26.8003H130.986V28.7253H131.04C131.414 27.4503 132.524 26.6753 133.954 26.6753C134.316 26.6753 134.61 26.7253 134.81 26.7628V28.9378C134.61 28.8628 134.182 28.8003 133.7 28.8003C132.096 28.8003 131.106 29.8128 131.106 31.4003V38.1128H128.619V26.8003V26.8003Z" fill="white"/>
<path d="M146.255 34.8001C145.921 36.8501 143.782 38.2626 141.041 38.2626C137.524 38.2626 135.331 36.0626 135.331 32.5126C135.331 28.9626 137.524 26.6626 140.934 26.6626C144.277 26.6626 146.389 28.8126 146.389 32.2501V33.0501H137.845V33.1876C137.845 35.1251 139.142 36.3876 141.108 36.3876C142.485 36.3876 143.568 35.7751 143.902 34.8001H146.255V34.8001ZM137.858 31.4126H143.915C143.862 29.6751 142.672 28.5376 140.947 28.5376C139.236 28.5501 137.992 29.7126 137.858 31.4126Z" fill="white"/>
<path d="M49.1252 14.0624H50.1949C51.0774 14.0624 51.7058 13.5749 51.7058 12.8749C51.7058 12.1874 51.1576 11.7374 50.2082 11.7374C49.2723 11.7374 48.6706 12.1749 48.6037 12.8999H47.427C47.5073 11.5499 48.577 10.7124 50.2484 10.7124C51.8128 10.7124 52.9226 11.5374 52.9226 12.7124C52.9226 13.5374 52.3343 14.2374 51.4785 14.4124V14.4999C52.5081 14.5999 53.2569 15.2624 53.2569 16.2999C53.2569 17.5749 51.9599 18.5124 50.2751 18.5124C48.5368 18.5124 47.3468 17.6374 47.28 16.2999H48.47C48.5368 17.0124 49.2455 17.4749 50.2751 17.4749C51.3047 17.4749 51.9866 16.9624 51.9866 16.2249C51.9866 15.4874 51.3448 15.0249 50.235 15.0249H49.1385V14.0624H49.1252Z" fill="white"/>
<path d="M54.5926 16.7747C54.5926 15.7622 55.3948 15.1747 56.8256 15.0997L58.4569 15.0122V14.5247C58.4569 13.9247 58.0423 13.5997 57.2267 13.5997C56.5581 13.5997 56.1035 13.8247 55.9698 14.2247H54.8199C54.9402 13.2622 55.9163 12.6372 57.2802 12.6372C58.7911 12.6372 59.6469 13.3372 59.6469 14.5247V18.3747H58.497V17.5872H58.4034C58.0423 18.1497 57.3872 18.4747 56.5983 18.4747C55.435 18.4622 54.5926 17.8122 54.5926 16.7747ZM58.4569 16.2997V15.8247L56.986 15.9122C56.157 15.9622 55.7826 16.2247 55.7826 16.7247C55.7826 17.2372 56.2506 17.5247 56.8924 17.5247C57.8017 17.5247 58.4569 16.9997 58.4569 16.2997Z" fill="white"/>
<path d="M62.8026 13.6748V18.3623H61.6125V12.7373H65.5704V13.6748H62.8026Z" fill="white"/>
<path d="M72.7782 15.5497C72.7782 17.3372 71.8155 18.4622 70.2912 18.4622C69.4354 18.4622 68.7535 18.1122 68.4326 17.5122H68.339V20.2372H67.1489V12.7372H68.2989V13.6622H68.3925C68.7535 13.0247 69.4622 12.6372 70.2778 12.6372C71.8155 12.6497 72.7782 13.7622 72.7782 15.5497ZM71.5614 15.5497C71.5614 14.3622 70.9597 13.6372 69.9569 13.6372C68.9541 13.6372 68.3256 14.3747 68.3256 15.5497C68.3256 16.7247 68.9541 17.4622 69.9435 17.4622C70.9597 17.4622 71.5614 16.7497 71.5614 15.5497Z" fill="white"/>
<path d="M74.3556 20.3873V19.4248C74.4492 19.4373 74.6364 19.4498 74.7434 19.4498C75.305 19.4498 75.6259 19.2373 75.8265 18.6623L75.9201 18.3873L73.7406 12.7373H75.0376L76.5485 17.2123H76.6421L78.1531 12.7373H79.4099L77.1636 18.5998C76.6555 19.9748 76.0805 20.4123 74.8504 20.4123C74.7568 20.4123 74.476 20.3998 74.3556 20.3873Z" fill="white"/>
<path d="M80.3322 16.7747H81.5088C81.6292 17.2747 82.1239 17.5247 82.8192 17.5247C83.6081 17.5247 84.1029 17.1997 84.1029 16.6872C84.1029 16.1497 83.6616 15.8872 82.8192 15.8872H81.9234V15.0247H82.8059C83.5279 15.0247 83.8889 14.7622 83.8889 14.2997C83.8889 13.8872 83.5413 13.5747 82.8059 13.5747C82.1373 13.5747 81.6559 13.8372 81.5757 14.2872H80.4258C80.5461 13.2872 81.442 12.6372 82.7925 12.6372C84.2232 12.6372 85.0388 13.2372 85.0388 14.1872C85.0388 14.7497 84.6511 15.2122 84.0895 15.3372V15.4247C84.865 15.5997 85.2662 16.0622 85.2662 16.6872C85.2662 17.7622 84.2901 18.4622 82.8059 18.4622C81.5088 18.4747 80.4392 17.9122 80.3322 16.7747Z" fill="white"/>
<path d="M87.0067 18.3745V12.7495H88.1834V16.6245H88.277L91.0583 12.7495H92.2349V18.3745H91.0583V14.487H90.9647L88.1834 18.3745H87.0067Z" fill="white"/>
<path d="M98.7172 13.6748H96.8185V18.3623H95.6284V13.6748H93.7297V12.7373H98.7172V13.6748Z" fill="white"/>
<path d="M105.109 16.8497C104.842 17.8622 103.879 18.4747 102.502 18.4747C100.777 18.4747 99.7204 17.3747 99.7204 15.5747C99.7204 13.7747 100.804 12.6372 102.502 12.6372C104.173 12.6372 105.189 13.7122 105.189 15.4747V15.8622H100.937V15.9247C100.977 16.9122 101.592 17.5372 102.542 17.5372C103.264 17.5372 103.759 17.2997 103.972 16.8497H105.109ZM100.937 15.0372H103.972C103.946 14.1497 103.371 13.5747 102.488 13.5747C101.606 13.5747 101.004 14.1622 100.937 15.0372Z" fill="white"/>
<path d="M110.151 12.7373H112.865C114.042 12.7373 114.737 13.2998 114.737 14.1748C114.737 14.7498 114.309 15.2623 113.721 15.3623V15.4498C114.497 15.5373 115.005 16.0623 115.005 16.7498C115.005 17.7373 114.216 18.3748 112.892 18.3748H110.151V12.7373ZM111.328 13.5998V15.0623H112.504C113.226 15.0623 113.561 14.7998 113.561 14.3248C113.561 13.8873 113.266 13.5998 112.625 13.5998H111.328ZM111.328 15.8748V17.5248H112.732C113.44 17.5248 113.815 17.2373 113.815 16.6998C113.815 16.1373 113.387 15.8748 112.585 15.8748H111.328Z" fill="white"/>
</svg>
