<svg width="20" height="17" viewBox="0 0 20 17" fill="none" xmlns="http://www.w3.org/2000/svg">
<path d="M17.4786 13.5322C19.0455 12.179 20 10.4002 20 8.45299C20 6.42706 18.9669 4.58373 17.2855 3.21206C17.2841 3.21047 17.281 3.20836 17.281 3.20836C15.5297 1.78173 13.0759 0.868518 10.3466 0.796909L10.1514 0.792681C10.101 0.79136 10.0507 0.790039 10 0.790039C9.94931 0.790039 9.89897 0.79136 9.84862 0.792681L9.65448 0.796645C6.92517 0.868254 4.47103 1.78173 2.71966 3.20836L2.71517 3.2118C1.03345 4.5832 0 6.42706 0 8.45299C0 10.4002 0.954483 12.179 2.52138 13.5322C2.52345 13.5346 2.52345 13.5372 2.52586 13.5396C2.53207 13.5462 2.54103 13.5494 2.54759 13.5555C4.30828 15.0637 6.83448 16.0353 9.65379 16.1093L9.84828 16.1136C9.89897 16.1146 9.94931 16.1159 10 16.1159C10.0507 16.1159 10.101 16.1146 10.1514 16.1133L10.3455 16.1093C13.1679 16.0351 15.6972 15.0614 17.4579 13.5499C17.4624 13.5454 17.4697 13.5441 17.4738 13.5393C17.4766 13.5372 17.4766 13.5346 17.4786 13.5322ZM0.698276 8.71723H4.83724C4.87621 9.83734 5.16172 10.9257 5.67 11.9454C4.68931 12.2173 3.75172 12.582 2.8731 13.037C1.58103 11.8593 0.776897 10.3582 0.698276 8.71723ZM3.06138 3.70275C3.91931 4.13029 4.83276 4.47275 5.78552 4.72853C5.20207 5.81376 4.87931 6.98382 4.83724 8.18875H0.698276C0.78069 6.46934 1.65931 4.90372 3.06138 3.70275ZM19.3017 8.18875H15.1628C15.1207 6.98382 14.7979 5.81376 14.2145 4.72853C15.1672 4.47275 16.0807 4.13029 16.9386 3.70275C18.3407 4.90372 19.2193 6.46934 19.3017 8.18875ZM9.65517 4.74386C8.65828 4.72219 7.67966 4.6083 6.73414 4.40484C7.4331 3.30613 8.42 2.31444 9.65517 1.48869V4.74386ZM9.65517 5.27234V8.18875H5.5269C5.56931 7.03984 5.88379 5.92554 6.44621 4.89236C7.48276 5.12251 8.55897 5.24988 9.65517 5.27234ZM10.3448 5.27234C11.441 5.24988 12.5172 5.12278 13.5541 4.89236C14.1166 5.92554 14.431 7.03984 14.4734 8.18875H10.3448V5.27234ZM10.3448 4.74386V1.48869C11.58 2.31444 12.5669 3.30613 13.2659 4.40484C12.3203 4.6083 11.3417 4.72219 10.3448 4.74386ZM13.9341 4.24418C13.2717 3.18062 12.3524 2.21165 11.2141 1.38114C13.2334 1.58355 15.0503 2.28326 16.4497 3.31485C15.6552 3.70117 14.8124 4.01191 13.9341 4.24418ZM6.06586 4.24418C5.18759 4.01191 4.34483 3.70117 3.55069 3.31485C4.94966 2.28326 6.7669 1.58355 8.78621 1.38114C7.64759 2.21165 6.72828 3.18062 6.06586 4.24418ZM5.5269 8.71723H9.65517V11.3697C8.51483 11.3929 7.39759 11.5293 6.32379 11.7769C5.83862 10.8111 5.56586 9.77921 5.5269 8.71723ZM9.65517 11.8981V15.4173C8.3331 14.5334 7.29655 13.4595 6.59172 12.2683C7.58034 12.0451 8.60724 11.9209 9.65517 11.8981ZM10.3448 15.4173V11.8981C11.3928 11.9206 12.4197 12.0451 13.4083 12.2681C12.7034 13.4595 11.6669 14.5334 10.3448 15.4173ZM10.3448 11.3697V8.71723H14.4731C14.4341 9.77921 14.1614 10.8111 13.6759 11.7771C12.6024 11.5293 11.4852 11.3929 10.3448 11.3697ZM15.1628 8.71723H19.3017C19.2231 10.3582 18.4193 11.8593 17.1269 13.037C16.2483 12.582 15.3107 12.2173 14.33 11.9454C14.8386 10.9257 15.1238 9.83734 15.1628 8.71723ZM3.34172 13.4329C4.15759 13.0175 5.02621 12.6835 5.93379 12.4338C6.60448 13.5858 7.56724 14.6357 8.78586 15.5248C6.66483 15.3121 4.76655 14.5511 3.34172 13.4329ZM11.2141 15.5248C12.4328 14.6359 13.3955 13.5861 14.0662 12.4338C14.9738 12.6835 15.8421 13.0175 16.6583 13.4329C15.2334 14.5511 13.3352 15.3121 11.2141 15.5248Z" fill="white"/>
</svg>
