<svg width="160" height="50" viewBox="0 0 160 50" fill="none" xmlns="http://www.w3.org/2000/svg">
<path d="M154.074 50H5.92593C2.66667 50 0 47.1875 0 43.75V6.25C0 2.8125 2.66667 0 5.92593 0H154.074C157.333 0 160 2.8125 160 6.25V43.75C160 47.1875 157.333 50 154.074 50Z" fill="black"/>
<path d="M154.074 1C156.824 1 159.052 3.35 159.052 6.25V43.75C159.052 46.65 156.824 49 154.074 49H5.92593C3.1763 49 0.948148 46.65 0.948148 43.75V6.25C0.948148 3.35 3.1763 1 5.92593 1H154.074V1ZM154.074 0H5.92593C2.66667 0 0 2.8125 0 6.25V43.75C0 47.1875 2.66667 50 5.92593 50H154.074C157.333 50 160 47.1875 160 43.75V6.25C160 2.8125 157.333 0 154.074 0Z" fill="#A6A6A6"/>
<path d="M80.7578 27.1885C77.9726 27.1885 75.6971 29.426 75.6971 32.501C75.6971 35.5635 77.9726 37.8135 80.7578 37.8135C83.543 37.8135 85.8186 35.5635 85.8186 32.501C85.8186 29.426 83.543 27.1885 80.7578 27.1885ZM80.7578 35.726C79.2289 35.726 77.9134 34.401 77.9134 32.501C77.9134 30.5885 79.2289 29.276 80.7578 29.276C82.2867 29.276 83.6023 30.5885 83.6023 32.501C83.6023 34.401 82.2749 35.726 80.7578 35.726ZM69.7119 27.1885C66.9267 27.1885 64.6511 29.426 64.6511 32.501C64.6511 35.5635 66.9267 37.8135 69.7119 37.8135C72.4971 37.8135 74.7726 35.5635 74.7726 32.501C74.7726 29.426 72.4971 27.1885 69.7119 27.1885ZM69.7119 35.726C68.183 35.726 66.8674 34.401 66.8674 32.501C66.8674 30.5885 68.183 29.276 69.7119 29.276C71.2408 29.276 72.5563 30.5885 72.5563 32.501C72.5563 34.401 71.2408 35.726 69.7119 35.726ZM56.58 28.826V31.076H61.7C61.546 32.3385 61.143 33.276 60.5386 33.9135C59.7919 34.701 58.6304 35.5635 56.5919 35.5635C53.4393 35.5635 50.9741 32.8885 50.9741 29.5635C50.9741 26.2385 53.4393 23.5635 56.5919 23.5635C58.2867 23.5635 59.5311 24.2635 60.4437 25.176L61.9489 23.5885C60.6689 22.301 58.9741 21.3135 56.58 21.3135C52.266 21.3135 48.6393 25.0135 48.6393 29.576C48.6393 34.126 52.266 37.8385 56.58 37.8385C58.9149 37.8385 60.6689 37.0385 62.0437 35.526C63.4541 34.0385 63.8926 31.9385 63.8926 30.251C63.8926 29.726 63.8571 29.2385 63.7741 28.8385H56.58V28.826ZM110.281 30.576C109.866 29.3885 108.586 27.1885 105.967 27.1885C103.371 27.1885 101.214 29.3385 101.214 32.501C101.214 35.476 103.347 37.8135 106.216 37.8135C108.527 37.8135 109.866 36.326 110.411 35.4635L108.693 34.251C108.124 35.1385 107.342 35.726 106.216 35.726C105.09 35.726 104.284 35.176 103.774 34.1135L110.518 31.176L110.281 30.576ZM103.407 32.351C103.347 30.301 104.912 29.251 106.038 29.251C106.915 29.251 107.662 29.7135 107.91 30.376L103.407 32.351ZM97.9311 37.501H100.147V21.876H97.9311V37.501ZM94.3045 28.376H94.2215C93.7237 27.751 92.7756 27.1885 91.5667 27.1885C89.0423 27.1885 86.7311 29.526 86.7311 32.526C86.7311 35.501 89.0423 37.826 91.5667 37.826C92.7637 37.826 93.7237 37.2635 94.2215 36.6135H94.2926V37.376C94.2926 39.4135 93.2615 40.501 91.6023 40.501C90.2511 40.501 89.4097 39.476 89.066 38.6135L87.1341 39.4635C87.6911 40.876 89.1608 42.601 91.6023 42.601C94.1978 42.601 96.3904 40.9885 96.3904 37.0635V27.5135H94.2926V28.376H94.3045ZM91.7563 35.726C90.2274 35.726 88.9474 34.376 88.9474 32.526C88.9474 30.651 90.2274 29.2885 91.7563 29.2885C93.2615 29.2885 94.4467 30.6635 94.4467 32.526C94.4586 34.376 93.2734 35.726 91.7563 35.726ZM120.663 21.876H115.365V37.501H117.582V31.576H120.675C123.128 31.576 125.534 29.701 125.534 26.726C125.534 23.751 123.104 21.876 120.663 21.876ZM120.71 29.401H117.57V24.0385H120.71C122.37 24.0385 123.306 25.4885 123.306 26.7135C123.306 27.9385 122.37 29.401 120.71 29.401ZM134.387 27.1635C132.787 27.1635 131.128 27.9135 130.441 29.551L132.408 30.4135C132.823 29.551 133.605 29.2635 134.423 29.2635C135.573 29.2635 136.734 29.9885 136.746 31.276V31.4385C136.343 31.201 135.49 30.8385 134.435 30.8385C132.313 30.8385 130.168 32.0635 130.168 34.351C130.168 36.4385 131.899 37.7885 133.842 37.7885C135.324 37.7885 136.153 37.0885 136.663 36.2635H136.734V37.476H138.867V31.4885C138.879 28.7135 136.912 27.1635 134.387 27.1635ZM134.115 35.726C133.392 35.726 132.384 35.3385 132.384 34.401C132.384 33.201 133.641 32.7385 134.731 32.7385C135.703 32.7385 136.165 32.9635 136.746 33.2635C136.58 34.701 135.395 35.726 134.115 35.726ZM146.654 27.501L144.118 34.276H144.047L141.416 27.501H139.033L142.98 36.976L140.728 42.2385H143.039L149.119 27.501H146.654ZM126.743 37.501H128.959V21.876H126.743V37.501Z" fill="white"/>
<path d="M12.3738 9.42441C12.0301 9.81191 11.8286 10.4119 11.8286 11.1744V38.8244C11.8286 39.5994 12.0301 40.1994 12.3738 40.5744L12.4568 40.6619L27.1412 25.1869V24.9994V24.8119L12.4568 9.33691L12.3738 9.42441Z" fill="url(#paint0_linear)"/>
<path d="M32.0344 30.3499L27.1396 25.1874V24.9999V24.8124L32.0344 19.6499L32.1411 19.7124L37.9366 23.1874C39.5959 24.1749 39.5959 25.7999 37.9366 26.7999L32.1411 30.2749L32.0344 30.3499Z" fill="url(#paint1_linear)"/>
<path d="M32.1401 30.2846L27.1386 24.9971L12.3712 40.5721C12.9164 41.1846 13.8171 41.2596 14.8364 40.6471L32.1401 30.2846Z" fill="url(#paint2_linear)"/>
<path d="M32.1418 19.7239L14.8262 9.34889C13.8069 8.73639 12.9062 8.81139 12.361 9.42389L27.1403 24.9989L32.1418 19.7239Z" fill="url(#paint3_linear)"/>
<path opacity="0.2" d="M32.0367 30.1621L14.8278 40.4746C13.8678 41.0496 13.0026 41.0121 12.4574 40.4871L12.3745 40.5746L12.4574 40.6621C13.0145 41.1871 13.8678 41.2246 14.8278 40.6496L32.1433 30.2746L32.0367 30.1621Z" fill="black"/>
<path opacity="0.12" d="M12.3738 40.4014C12.0301 40.0139 11.8286 39.4139 11.8286 38.6514V38.8389C11.8286 39.6139 12.0301 40.2139 12.3738 40.5889L12.4568 40.5014L12.3738 40.4014Z" fill="black"/>
<path opacity="0.12" d="M37.9375 26.6221L32.0234 30.1596L32.1301 30.2721L37.9256 26.7971C38.7553 26.2971 39.1701 25.6471 39.1701 24.9971C39.1108 25.5846 38.696 26.1721 37.9375 26.6221Z" fill="black"/>
<path opacity="0.25" d="M14.8256 9.52407L37.9367 23.3741C38.6834 23.8241 39.11 24.3991 39.1811 24.9991C39.1811 24.3491 38.7663 23.6866 37.9367 23.1991L14.8256 9.34907C13.1663 8.36157 11.8152 9.18657 11.8152 11.1866V11.3741C11.8152 9.36157 13.1782 8.53657 14.8256 9.52407Z" fill="white"/>
<path d="M49.9092 17.8351H49.0321V15.3226H49.7314C50.3477 14.7601 50.644 13.8101 50.6321 12.4476V8.74756H55.3847V15.3226H56.1788V17.8351H55.3017V16.2476H49.9092V17.8351ZM51.5566 12.4601C51.5684 13.6476 51.3432 14.5976 50.881 15.3351H54.4721V9.67256H51.5566V12.4601Z" fill="white" stroke="white" stroke-width="0.2" stroke-miterlimit="10"/>
<path d="M63.3032 15.2744C62.6039 16.0369 61.7388 16.4119 60.6958 16.4119C59.6528 16.4119 58.7876 16.0369 58.0884 15.2744C57.3891 14.5119 57.0454 13.5869 57.0454 12.4994C57.0454 11.4119 57.3891 10.4744 58.0884 9.72441C58.7876 8.96191 59.6528 8.58691 60.6958 8.58691C61.7269 8.58691 62.5921 8.96191 63.3032 9.72441C64.0025 10.4869 64.358 11.4119 64.358 12.4994C64.358 13.5994 64.0025 14.5244 63.3032 15.2744ZM58.7639 14.6494C59.2854 15.2119 59.9373 15.4869 60.6958 15.4869C61.4543 15.4869 62.1062 15.2119 62.6277 14.6494C63.1491 14.0869 63.4217 13.3744 63.4217 12.4994C63.4217 11.6244 63.161 10.9119 62.6277 10.3494C62.1062 9.78691 61.4662 9.49941 60.6958 9.49941C59.9373 9.49941 59.2854 9.77442 58.7639 10.3369C58.2425 10.9119 57.9817 11.6244 57.9817 12.4994C57.9817 13.3744 58.2425 14.0869 58.7639 14.6494Z" fill="white" stroke="white" stroke-width="0.2" stroke-miterlimit="10"/>
<path d="M68.9565 16.4125C67.9135 16.4125 67.0365 16.0375 66.3253 15.2875C65.6142 14.5375 65.2587 13.6125 65.2587 12.4875C65.2587 11.375 65.6142 10.4375 66.3253 9.6875C67.0365 8.9375 67.9135 8.5625 68.9565 8.5625C70.0231 8.5625 70.9002 8.975 71.5639 9.7875L70.9239 10.4375C70.4379 9.8 69.7861 9.4875 68.9446 9.4875C68.1742 9.4875 67.5105 9.7625 66.9772 10.3125C66.4439 10.8625 66.1831 11.5875 66.1831 12.475C66.1831 13.3625 66.4439 14.0875 66.9772 14.6375C67.5105 15.1875 68.1624 15.4625 68.9446 15.4625C69.7979 15.4625 70.5209 15.1 71.1253 14.375L71.7653 15.05C71.4453 15.4625 71.0305 15.7875 70.5446 16.025C70.0587 16.3 69.5253 16.4125 68.9565 16.4125Z" fill="white" stroke="white" stroke-width="0.2" stroke-miterlimit="10"/>
<path d="M75.4729 16.2476H74.5603V9.67256H72.5692V8.74756H77.4522V9.67256H75.4611V16.2476H75.4729Z" fill="white" stroke="white" stroke-width="0.2" stroke-miterlimit="10"/>
<path d="M83.7343 8.74756L81.0439 15.0726C80.6765 15.9601 80.1194 16.4101 79.3846 16.4101C79.1713 16.4101 78.9343 16.3601 78.6735 16.2476L78.9106 15.3601C79.0646 15.4476 79.2187 15.4976 79.3846 15.4976C79.598 15.4976 79.7639 15.4601 79.8824 15.3726C80.0009 15.2851 80.1076 15.1226 80.2024 14.8976L80.4631 14.2976L78.0691 8.74756H79.1476L80.9017 13.0476H80.9372L82.6557 8.74756H83.7343Z" fill="white" stroke="white" stroke-width="0.2" stroke-miterlimit="10"/>
<path d="M84.7641 16.2476V8.74756H89.9078V16.2476H88.9952V9.67256H85.6767V16.2476H84.7641Z" fill="white" stroke="white" stroke-width="0.2" stroke-miterlimit="10"/>
<path d="M91.5322 16.2476V8.74756H92.4448V11.9601H96.0003V8.74756H96.9129V16.2476H96.0003V12.8601H92.4448V16.2476H91.5322Z" fill="white" stroke="white" stroke-width="0.2" stroke-miterlimit="10"/>
<path d="M104.369 15.2744C103.67 16.0369 102.804 16.4119 101.761 16.4119C100.718 16.4119 99.8532 16.0369 99.154 15.2744C98.4547 14.5119 98.111 13.5869 98.111 12.4994C98.111 11.4119 98.4547 10.4744 99.154 9.72441C99.8532 8.96191 100.718 8.58691 101.761 8.58691C102.792 8.58691 103.658 8.96191 104.369 9.72441C105.068 10.4869 105.424 11.4119 105.424 12.4994C105.412 13.5994 105.068 14.5244 104.369 15.2744ZM99.8295 14.6494C100.351 15.2119 101.003 15.4869 101.761 15.4869C102.52 15.4869 103.172 15.2119 103.693 14.6494C104.215 14.0869 104.487 13.3744 104.487 12.4994C104.487 11.6244 104.227 10.9119 103.693 10.3494C103.16 9.78691 102.52 9.49941 101.761 9.49941C101.003 9.49941 100.351 9.77442 99.8295 10.3369C99.2962 10.9119 99.0354 11.6244 99.0354 12.4994C99.0354 13.3744 99.2962 14.0869 99.8295 14.6494Z" fill="white" stroke="white" stroke-width="0.2" stroke-miterlimit="10"/>
<path d="M109.144 16.2476V8.74756H111.716C112.273 8.74756 112.759 8.94756 113.161 9.32256C113.576 9.72256 113.778 10.2101 113.778 10.7851C113.778 11.1476 113.695 11.4601 113.517 11.7226C113.339 11.9976 113.114 12.1976 112.818 12.3351V12.3726C113.173 12.4976 113.458 12.7101 113.683 13.0226C113.908 13.3351 114.027 13.6851 114.027 14.0851C114.027 14.6976 113.813 15.2101 113.387 15.6101C112.948 16.0476 112.439 16.2476 111.858 16.2476H109.144ZM110.056 11.9601H111.716C112.059 11.9601 112.332 11.8351 112.545 11.5976C112.759 11.3601 112.853 11.0976 112.853 10.8101C112.853 10.5226 112.759 10.2601 112.545 10.0226C112.344 9.78506 112.083 9.66006 111.751 9.66006H110.056V11.9601ZM110.056 15.3226H111.893C112.249 15.3226 112.533 15.1976 112.747 14.9351C112.96 14.6726 113.079 14.3976 113.079 14.0851C113.079 13.7726 112.972 13.4976 112.735 13.2476C112.51 12.9976 112.213 12.8601 111.846 12.8601H110.044V15.3226H110.056Z" fill="white" stroke="white" stroke-width="0.2" stroke-miterlimit="10"/>
<defs>
<linearGradient id="paint0_linear" x1="25.8371" y1="10.8867" x2="4.88876" y2="30.7488" gradientUnits="userSpaceOnUse">
<stop stop-color="#00A0FF"/>
<stop offset="0.00657445" stop-color="#00A1FF"/>
<stop offset="0.2601" stop-color="#00BEFF"/>
<stop offset="0.5122" stop-color="#00D2FF"/>
<stop offset="0.7604" stop-color="#00DFFF"/>
<stop offset="1" stop-color="#00E3FF"/>
</linearGradient>
<linearGradient id="paint1_linear" x1="40.0988" y1="25.0018" x2="11.421" y2="25.0018" gradientUnits="userSpaceOnUse">
<stop stop-color="#FFE000"/>
<stop offset="0.4087" stop-color="#FFBD00"/>
<stop offset="0.7754" stop-color="#FFA500"/>
<stop offset="1" stop-color="#FF9C00"/>
</linearGradient>
<linearGradient id="paint2_linear" x1="29.4223" y1="27.8673" x2="1.01474" y2="54.8019" gradientUnits="userSpaceOnUse">
<stop stop-color="#FF3A44"/>
<stop offset="1" stop-color="#C31162"/>
</linearGradient>
<linearGradient id="paint3_linear" x1="8.64807" y1="0.219263" x2="21.3333" y2="12.2466" gradientUnits="userSpaceOnUse">
<stop stop-color="#32A071"/>
<stop offset="0.0685" stop-color="#2DA771"/>
<stop offset="0.4762" stop-color="#15CF74"/>
<stop offset="0.8009" stop-color="#06E775"/>
<stop offset="1" stop-color="#00F076"/>
</linearGradient>
</defs>
</svg>
