<svg display="none" xmlns="http://www.w3.org/2000/svg">
    <symbol id="search" width="20" height="17" viewBox="0 0 20 17" fill="none" xmlns="http://www.w3.org/2000/svg">
        <path d="M19.8779 15.1194L14.0681 10.6674C15.17 9.62487 15.8334 8.29953 15.8334 6.85656C15.8334 3.5115 12.2819 0.790039 7.91666 0.790039C3.55142 0.790039 0 3.5115 0 6.85656C0 10.2016 3.55146 12.9231 7.9167 12.9231C9.79975 12.9231 11.5293 12.4148 12.8897 11.5704L18.6996 16.0224C18.8624 16.1471 19.1261 16.1471 19.2889 16.0224L19.878 15.571C20.0407 15.4463 20.0407 15.2441 19.8779 15.1194ZM7.9167 11.6459C4.47025 11.6459 1.66668 9.49756 1.66668 6.85656C1.66668 4.21556 4.47025 2.06721 7.9167 2.06721C11.3632 2.06721 14.1667 4.21556 14.1667 6.85656C14.1667 9.49756 11.3632 11.6459 7.9167 11.6459Z" fill="var(--color-1)"/>
    </symbol>
    <symbol id="globe" width="20" height="17" viewBox="0 0 20 17" fill="none" xmlns="http://www.w3.org/2000/svg">
        <path d="M17.4786 13.5322C19.0455 12.179 20 10.4002 20 8.45299C20 6.42706 18.9669 4.58373 17.2855 3.21206C17.2841 3.21047 17.281 3.20836 17.281 3.20836C15.5297 1.78173 13.0759 0.868518 10.3466 0.796909L10.1514 0.792681C10.101 0.79136 10.0507 0.790039 10 0.790039C9.94931 0.790039 9.89897 0.79136 9.84862 0.792681L9.65448 0.796645C6.92517 0.868254 4.47103 1.78173 2.71966 3.20836L2.71517 3.2118C1.03345 4.5832 0 6.42706 0 8.45299C0 10.4002 0.954483 12.179 2.52138 13.5322C2.52345 13.5346 2.52345 13.5372 2.52586 13.5396C2.53207 13.5462 2.54103 13.5494 2.54759 13.5555C4.30828 15.0637 6.83448 16.0353 9.65379 16.1093L9.84828 16.1136C9.89897 16.1146 9.94931 16.1159 10 16.1159C10.0507 16.1159 10.101 16.1146 10.1514 16.1133L10.3455 16.1093C13.1679 16.0351 15.6972 15.0614 17.4579 13.5499C17.4624 13.5454 17.4697 13.5441 17.4738 13.5393C17.4766 13.5372 17.4766 13.5346 17.4786 13.5322ZM0.698276 8.71723H4.83724C4.87621 9.83734 5.16172 10.9257 5.67 11.9454C4.68931 12.2173 3.75172 12.582 2.8731 13.037C1.58103 11.8593 0.776897 10.3582 0.698276 8.71723ZM3.06138 3.70275C3.91931 4.13029 4.83276 4.47275 5.78552 4.72853C5.20207 5.81376 4.87931 6.98382 4.83724 8.18875H0.698276C0.78069 6.46934 1.65931 4.90372 3.06138 3.70275ZM19.3017 8.18875H15.1628C15.1207 6.98382 14.7979 5.81376 14.2145 4.72853C15.1672 4.47275 16.0807 4.13029 16.9386 3.70275C18.3407 4.90372 19.2193 6.46934 19.3017 8.18875ZM9.65517 4.74386C8.65828 4.72219 7.67966 4.6083 6.73414 4.40484C7.4331 3.30613 8.42 2.31444 9.65517 1.48869V4.74386ZM9.65517 5.27234V8.18875H5.5269C5.56931 7.03984 5.88379 5.92554 6.44621 4.89236C7.48276 5.12251 8.55897 5.24988 9.65517 5.27234ZM10.3448 5.27234C11.441 5.24988 12.5172 5.12278 13.5541 4.89236C14.1166 5.92554 14.431 7.03984 14.4734 8.18875H10.3448V5.27234ZM10.3448 4.74386V1.48869C11.58 2.31444 12.5669 3.30613 13.2659 4.40484C12.3203 4.6083 11.3417 4.72219 10.3448 4.74386ZM13.9341 4.24418C13.2717 3.18062 12.3524 2.21165 11.2141 1.38114C13.2334 1.58355 15.0503 2.28326 16.4497 3.31485C15.6552 3.70117 14.8124 4.01191 13.9341 4.24418ZM6.06586 4.24418C5.18759 4.01191 4.34483 3.70117 3.55069 3.31485C4.94966 2.28326 6.7669 1.58355 8.78621 1.38114C7.64759 2.21165 6.72828 3.18062 6.06586 4.24418ZM5.5269 8.71723H9.65517V11.3697C8.51483 11.3929 7.39759 11.5293 6.32379 11.7769C5.83862 10.8111 5.56586 9.77921 5.5269 8.71723ZM9.65517 11.8981V15.4173C8.3331 14.5334 7.29655 13.4595 6.59172 12.2683C7.58034 12.0451 8.60724 11.9209 9.65517 11.8981ZM10.3448 15.4173V11.8981C11.3928 11.9206 12.4197 12.0451 13.4083 12.2681C12.7034 13.4595 11.6669 14.5334 10.3448 15.4173ZM10.3448 11.3697V8.71723H14.4731C14.4341 9.77921 14.1614 10.8111 13.6759 11.7771C12.6024 11.5293 11.4852 11.3929 10.3448 11.3697ZM15.1628 8.71723H19.3017C19.2231 10.3582 18.4193 11.8593 17.1269 13.037C16.2483 12.582 15.3107 12.2173 14.33 11.9454C14.8386 10.9257 15.1238 9.83734 15.1628 8.71723ZM3.34172 13.4329C4.15759 13.0175 5.02621 12.6835 5.93379 12.4338C6.60448 13.5858 7.56724 14.6357 8.78586 15.5248C6.66483 15.3121 4.76655 14.5511 3.34172 13.4329ZM11.2141 15.5248C12.4328 14.6359 13.3955 13.5861 14.0662 12.4338C14.9738 12.6835 15.8421 13.0175 16.6583 13.4329C15.2334 14.5511 13.3352 15.3121 11.2141 15.5248Z" fill="var(--color-1)"/>
    </symbol>
    <symbol id="youtube" width="35" height="25" viewBox="0 0 35 25" fill="none" xmlns="http://www.w3.org/2000/svg">
        <path d="M27.7309 0H7.26905C3.25446 0 0 3.28509 0 7.33747V17.6625C0 21.7149 3.25446 25 7.26905 25H27.7309C31.7455 25 35 21.7149 35 17.6625V7.33747C35 3.28509 31.7455 0 27.7309 0ZM22.8149 13.0024L13.2442 17.61C12.9892 17.7327 12.6946 17.545 12.6946 17.2599V7.75667C12.6946 7.46744 12.997 7.27999 13.2525 7.41073L22.8232 12.3063C23.1078 12.4519 23.1028 12.8638 22.8149 13.0024Z" fill="var(--color-2)"/>
    </symbol>
    <symbol id="vk" width="44" height="25" viewBox="0 0 44 25" fill="none" xmlns="http://www.w3.org/2000/svg">
        <path d="M43.7666 22.5777C43.7134 22.4634 43.6637 22.3685 43.6176 22.2926C42.8542 20.9233 41.3953 19.2427 39.242 17.2503L39.1965 17.2046L39.1737 17.1823L39.1506 17.1593H39.1275C38.1502 16.2315 37.5313 15.6077 37.2722 15.2883C36.7979 14.6799 36.6917 14.064 36.9509 13.44C37.134 12.9686 37.8218 11.9729 39.0127 10.4517C39.6391 9.64557 40.1353 8.99944 40.5016 8.51264C43.144 5.01431 44.2896 2.77882 43.9381 1.80531L43.8016 1.57782C43.7099 1.44086 43.4732 1.31556 43.0918 1.20129C42.7096 1.08727 42.221 1.06841 41.6252 1.1444L35.0276 1.18979C34.9207 1.15207 34.7681 1.15559 34.5693 1.20129C34.3707 1.247 34.2714 1.26994 34.2714 1.26994L34.1565 1.32707L34.0654 1.39571C33.989 1.4411 33.905 1.52092 33.8133 1.63503C33.722 1.74874 33.6457 1.88218 33.5848 2.03425C32.8665 3.87459 32.0498 5.58564 31.1332 7.16733C30.5681 8.11047 30.0491 8.92784 29.5751 9.61992C29.1018 10.3118 28.7047 10.8215 28.3842 11.1482C28.0632 11.4753 27.7736 11.7373 27.5134 11.9352C27.2537 12.1332 27.0554 12.2169 26.9181 12.1863C26.7805 12.1557 26.6509 12.1253 26.5283 12.095C26.3146 11.958 26.1427 11.7717 26.0131 11.536C25.883 11.3003 25.7954 11.0036 25.7495 10.6462C25.704 10.2885 25.677 9.98086 25.6693 9.7222C25.6622 9.46386 25.6654 9.09844 25.6809 8.62699C25.6968 8.1553 25.704 7.83615 25.704 7.66882C25.704 7.09077 25.7153 6.46342 25.738 5.78661C25.7611 5.10979 25.7798 4.57354 25.7954 4.17848C25.811 3.78302 25.8182 3.36462 25.8182 2.92353C25.8182 2.48245 25.7913 2.13653 25.738 1.88546C25.6853 1.63471 25.6045 1.39131 25.4981 1.15535C25.3909 0.919622 25.2342 0.737274 25.0284 0.607824C24.8223 0.478534 24.566 0.375933 24.261 0.299702C23.4515 0.117274 22.4206 0.0185883 21.168 0.00324613C18.3275 -0.0271186 16.5023 0.155549 15.6928 0.55101C15.3721 0.718095 15.0819 0.94639 14.8224 1.23517C14.5474 1.56991 14.509 1.75257 14.7076 1.78262C15.6241 1.91934 16.2729 2.2464 16.6547 2.76348L16.7923 3.03748C16.8994 3.23517 17.0063 3.58517 17.1132 4.08698C17.22 4.5888 17.2889 5.14391 17.3193 5.75201C17.3955 6.86248 17.3955 7.81306 17.3193 8.60382C17.2428 9.3949 17.1706 10.0107 17.1017 10.4518C17.0327 10.8929 16.9297 11.2503 16.7923 11.524C16.6547 11.7978 16.5632 11.9651 16.5173 12.0258C16.4715 12.0866 16.4333 12.1248 16.4029 12.1399C16.2044 12.2156 15.998 12.2542 15.7843 12.2542C15.5703 12.2542 15.3108 12.1476 15.0054 11.9346C14.7001 11.7216 14.3832 11.4289 14.0548 11.0562C13.7264 10.6835 13.356 10.1626 12.9435 9.49342C12.5313 8.82428 12.1036 8.03344 11.6607 7.1209L11.2943 6.45911C11.0652 6.03336 10.7522 5.41344 10.3551 4.59991C9.95779 3.78605 9.60658 2.99881 9.30127 2.23833C9.17922 1.91894 8.99588 1.67578 8.75155 1.50846L8.63689 1.43982C8.56066 1.37909 8.43829 1.3146 8.27043 1.24588C8.10233 1.17724 7.92693 1.12802 7.7435 1.09773L1.46645 1.14312C0.825021 1.14312 0.389803 1.28783 0.160639 1.57686L0.0689256 1.71358C0.0231089 1.78973 0 1.91135 0 2.07876C0 2.24608 0.0458167 2.45144 0.13753 2.6946C1.05386 4.83931 2.05036 6.90771 3.12701 8.90011C4.20366 10.8925 5.13925 12.4975 5.93322 13.7135C6.72735 14.9304 7.5368 16.0789 8.36158 17.1584C9.18637 18.2384 9.73232 18.9305 9.99943 19.2345C10.2669 19.5391 10.4769 19.7668 10.6296 19.9189L11.2025 20.4664C11.569 20.8315 12.1072 21.2687 12.8174 21.7781C13.5278 22.2878 14.3142 22.7897 15.1771 23.2844C16.0402 23.7783 17.0442 24.1813 18.1898 24.493C19.3352 24.8051 20.45 24.9303 21.5345 24.8699H24.1691C24.7034 24.8239 25.1082 24.6566 25.3833 24.3678L25.4745 24.2535C25.5358 24.1627 25.5932 24.0217 25.6461 23.8319C25.6997 23.6418 25.7263 23.4324 25.7263 23.2045C25.7107 22.5507 25.7607 21.9613 25.875 21.4367C25.9891 20.9122 26.1193 20.5167 26.2648 20.2504C26.4103 19.9843 26.5745 19.7597 26.7572 19.5777C26.9403 19.3953 27.0708 19.2848 27.1473 19.2467C27.2234 19.2085 27.2841 19.1825 27.3299 19.1669C27.6965 19.0453 28.1278 19.1631 28.6247 19.5208C29.1211 19.8782 29.5867 20.3196 30.0223 20.8441C30.4576 21.3691 30.9806 21.9581 31.5914 22.6119C32.2025 23.2661 32.7369 23.7523 33.195 24.0722L33.653 24.3459C33.9588 24.5286 34.3559 24.6959 34.8448 24.848C35.3327 25 35.7602 25.038 36.1273 24.962L41.9918 24.8709C42.5718 24.8709 43.0232 24.7753 43.3433 24.5855C43.6641 24.3954 43.8547 24.186 43.9161 23.9581C43.9774 23.7301 43.9807 23.4713 43.9278 23.1821C43.8734 22.8935 43.8199 22.6918 43.7666 22.5777Z" fill="var(--color-2)"/>
    </symbol>
    <symbol id="facebook" width="25" height="25" viewBox="0 0 25 25" fill="none" xmlns="http://www.w3.org/2000/svg">
        <path d="M18.7491 0.00520167L15.5072 0C11.8651 0 9.51132 2.41487 9.51132 6.15253V8.98926H6.25173C5.97006 8.98926 5.74197 9.21762 5.74197 9.49929V13.6094C5.74197 13.8911 5.97032 14.1191 6.25173 14.1191H9.51132V24.4902C9.51132 24.7719 9.73941 25 10.0211 25H14.2739C14.5556 25 14.7837 24.7716 14.7837 24.4902V14.1191H18.5949C18.8766 14.1191 19.1047 13.8911 19.1047 13.6094L19.1062 9.49929C19.1062 9.36404 19.0524 9.23452 18.9569 9.13881C18.8615 9.0431 18.7314 8.98926 18.5962 8.98926H14.7837V6.58453C14.7837 5.42872 15.0591 4.84197 16.5647 4.84197L18.7486 4.84119C19.03 4.84119 19.2581 4.61284 19.2581 4.33143V0.514965C19.2581 0.233815 19.0303 0.00572184 18.7491 0.00520167Z" fill="var(--color-2)"/>
    </symbol>
    <symbol id="instagram" width="25" height="25" viewBox="0 0 25 25" fill="none" xmlns="http://www.w3.org/2000/svg">
        <path d="M17.1875 0H7.8125C3.49844 0 0 3.49844 0 7.8125V17.1875C0 21.5016 3.49844 25 7.8125 25H17.1875C21.5016 25 25 21.5016 25 17.1875V7.8125C25 3.49844 21.5016 0 17.1875 0ZM22.6562 17.1875C22.6562 20.2031 20.2031 22.6562 17.1875 22.6562H7.8125C4.79688 22.6562 2.34375 20.2031 2.34375 17.1875V7.8125C2.34375 4.79688 4.79688 2.34375 7.8125 2.34375H17.1875C20.2031 2.34375 22.6562 4.79688 22.6562 7.8125V17.1875Z" fill="var(--color-2)"/>
        <path d="M12.5 6.25C9.04844 6.25 6.25 9.04844 6.25 12.5C6.25 15.9516 9.04844 18.75 12.5 18.75C15.9516 18.75 18.75 15.9516 18.75 12.5C18.75 9.04844 15.9516 6.25 12.5 6.25ZM12.5 16.4062C10.3469 16.4062 8.59375 14.6531 8.59375 12.5C8.59375 10.3453 10.3469 8.59375 12.5 8.59375C14.6531 8.59375 16.4062 10.3453 16.4062 12.5C16.4062 14.6531 14.6531 16.4062 12.5 16.4062Z" fill="var(--color-2)"/>
        <path d="M19.2187 6.61387C19.6787 6.61387 20.0515 6.241 20.0515 5.78105C20.0515 5.3211 19.6787 4.94824 19.2187 4.94824C18.7588 4.94824 18.3859 5.3211 18.3859 5.78105C18.3859 6.241 18.7588 6.61387 19.2187 6.61387Z" fill="var(--color-2)"/>
    </symbol>
</svg>