<svg id="search" width="20" height="17" viewBox="0 0 20 17" fill="none" xmlns="http://www.w3.org/2000/svg">
    <path d="M19.8779 15.1194L14.0681 10.6674C15.17 9.62487 15.8334 8.29953 15.8334 6.85656C15.8334 3.5115 12.2819 0.790039 7.91666 0.790039C3.55142 0.790039 0 3.5115 0 6.85656C0 10.2016 3.55146 12.9231 7.9167 12.9231C9.79975 12.9231 11.5293 12.4148 12.8897 11.5704L18.6996 16.0224C18.8624 16.1471 19.1261 16.1471 19.2889 16.0224L19.878 15.571C20.0407 15.4463 20.0407 15.2441 19.8779 15.1194ZM7.9167 11.6459C4.47025 11.6459 1.66668 9.49756 1.66668 6.85656C1.66668 4.21556 4.47025 2.06721 7.9167 2.06721C11.3632 2.06721 14.1667 4.21556 14.1667 6.85656C14.1667 9.49756 11.3632 11.6459 7.9167 11.6459Z" fill="var(--color-1)"/>
</svg>